<svg id="Capa_1" data-name="Capa 1" xmlns="http://www.w3.org/2000/svg" viewBox="0 0 571.68 177"><defs><style>.cls-1{fill:#020000;}</style></defs><title>Sin título-3</title><path class="cls-1" d="M326.07,453.74" transform="translate(-248.79 -447.02)"/><path class="cls-1" d="M643.52,589c-61.74-.77-107.66-.76-153.58-.76-10.63,0-21.25-.19-31.87-.3-3.17,0-6.05-2.3-6.16-4.83s2.87-5.23,6.21-5.24c15.15,0,30.32-.55,45.43.17,32.72,1.57,65.44.21,98.14.88,33.46.69,66.92,0,100.36.52,31.27.52,62.53.12,93.8.34a22.18,22.18,0,0,1,3.65.1c2.56.44,4.44,1.84,4.15,4.66-.26,2.54-1.4,4.75-4.49,4.79-4.64.06-9.29.18-13.92,0-14.77-.59-29.55-.29-44.32-.31C703.18,588.92,665.44,589,643.52,589Z" transform="translate(-248.79 -447.02)"/><path class="cls-1" d="M605.07,557.92c-4.52,0-9-.08-13.56,0-1.86,0-2.79-.44-2.48-2.43a6.72,6.72,0,0,0,0-1.1c0-6.31,0-6.39,6.11-6.77,1.65-.1,2-.67,2-2.17,0-9.16-.11-18.32,0-27.47,0-2.9-1.81-2.21-3.4-2.37s-4,.87-4.5-1.21a29,29,0,0,1,0-8.37c.07-.81,1.48-.54,2.3-.54,9.16,0,18.33,0,27.49,0,1.93,0,2.72.58,2.47,2.5a14,14,0,0,0,0,1.83c0,5.67,0,5.77-5.57,5.81-2.17,0-2.91.55-2.92,2.87,0,8.12-.13,8.12,7.8,8.12,5.5,0,11-.11,16.5.06,2.31.07,3.1-.69,2.77-2.9a18.22,18.22,0,0,1,0-2.56c0-5.24,0-5.32-5.27-5.5-2-.07-2.75-.74-2.85-2.79-.34-7.4-.41-7.4,7-7.4s14.9.07,22.35,0c2.27,0,3.53.4,3.07,3a10.15,10.15,0,0,0,0,1.83c0,5.45.7,5.61-5.26,5.38-2.26-.09-3.21.45-3.17,3q.25,13,0,26c0,2.42.66,3.07,3,3,5.37-.12,5.13,0,5.46,5.57.21,3.67-.63,5-4.6,4.79-8.41-.36-16.85-.17-25.28-.07-2,0-3-.46-2.62-2.58a10.29,10.29,0,0,0,0-1.47c0-6,0-6.06,5.81-6.25,1.71-.06,2.23-.5,2.31-2.27.45-9.27.5-9.26-8.84-9.26-5.25,0-10.51.07-15.76,0-1.89,0-2.73.49-2.45,2.46a20,20,0,0,1,0,2.19c.09,2.17-.55,4.86.5,6.36s3.87.31,5.9.51c.8.08,1.92-.24,2,1,.07,2.81.16,5.63-.05,8.42-.1,1.38-1.55.84-2.42.85C614.36,558,609.71,557.92,605.07,557.92Z" transform="translate(-248.79 -447.02)"/><path class="cls-1" d="M572.61,509.8c1.08-1.3-.64-3.86,1.28-4.19a39.7,39.7,0,0,1,9.12-.09c1,.06.71,1.39.71,2.19,0,6.84-.06,13.67.06,20.51,0,2-.64,2.65-2.52,2.4a10.16,10.16,0,0,0-1.83,0c-3.65.16-7.13.76-7-5.06.07-3.63-3.31-5.78-6.5-7.22-7-3.18-14-4.79-21.93-2a16.53,16.53,0,0,0-9.31,23.39,15.17,15.17,0,0,0,9.91,7.89,32,32,0,0,0,18-.34c4-1.22,7.24-3.52,8.94-7.44.93-2.14,2.31-2.91,4.52-2.56a13.44,13.44,0,0,0,2.2,0c6.33,0,7.17,1.28,4.17,7.23a23,23,0,0,1-16.08,12.54,68.82,68.82,0,0,1-36.16-1.5c-17.84-5.59-20-28.4-11.22-38.78a29.52,29.52,0,0,1,9.59-7.49c10.48-5.27,21.47-6.44,32.91-4.23C565.55,505.88,568.59,509.07,572.61,509.8Z" transform="translate(-248.79 -447.02)"/><path class="cls-1" d="M687,505.52c4.4,0,8.8.14,13.19-.06,2.49-.11,3.31.79,2.93,3.11a8.08,8.08,0,0,0,0,1.1c0,5.68,0,5.75-5.79,6-1.94.07-2.82.52-2.78,2.7.13,6.71,0,13.42.08,20.14s2.7,9.43,9.49,9.87a72,72,0,0,0,9.52,0c5.3-.36,7.71-2.82,7.82-8.14.15-7.44,0-14.89.13-22.34,0-1.87-.76-2.13-2.36-2.23-1.84-.12-4.65,1.13-5.34-.91-.85-2.52-.41-5.52-.34-8.3,0-1.25,1.27-.87,2-.87,8.19,0,16.37,0,24.55-.05,1.62,0,2.23.56,2.06,2.13-.07.72,0,1.46,0,2.19-.08,5.65,1,6.17-5.58,5.82-2.37-.13-2.8.83-2.76,3,.13,7.07,0,14.16.06,21.24.06,8.56-4.4,15.29-12.86,17.71a48.6,48.6,0,0,1-29.86-.76c-7.22-2.48-13.16-9.65-12.51-18.07.51-6.56,0-13.18.16-19.77.07-2.57-.7-3.47-3.28-3.35-1.56.08-4.06,1-4.54-1.09-.62-2.65-.35-5.56-.16-8.34.07-1,1.43-.63,2.23-.64C677.75,505.5,682.39,505.52,687,505.52Z" transform="translate(-248.79 -447.02)"/><path class="cls-1" d="M764.87,505.52c4.64,0,9.28.06,13.92,0,1.69,0,2.54.4,2.34,2.23a28.62,28.62,0,0,0,0,2.93c0,5,0,5.13-5,5-2.79-.11-3.47.76-3.38,3.47.21,6.71,0,13.43.1,20.14.09,5.82,2.44,8.37,8.28,9.08a48.88,48.88,0,0,0,11.34,0c4.46-.49,6.48-2.5,7-7,.81-7.79.12-15.61.38-23.41.07-2.32-1.41-2-2.87-2.21-1.71-.21-4.33,1.05-4.9-1.13-.69-2.62-.37-5.55-.18-8.33.07-1,1.42-.64,2.22-.65,7.93,0,15.87,0,23.81,0,1.83,0,2.79.41,2.51,2.42a20.17,20.17,0,0,0,0,2.2c-.08,4.77,1.23,5.94-5.51,5.53-2.44-.15-3.11.76-3,3.14.15,6.84-.16,13.68.1,20.51.39,10-5.39,16.69-14.71,18.82a50.33,50.33,0,0,1-27.08-1c-8.23-2.64-14.12-9.94-13.47-18.91.45-6.31-.09-12.69.16-19,.12-3-.86-3.78-3.64-3.58-1.44.11-3.84.92-4.21-1a32.55,32.55,0,0,1,0-8.71c.06-.66,1.54-.39,2.37-.39C755.84,505.51,760.35,505.52,764.87,505.52Z" transform="translate(-248.79 -447.02)"/><path class="cls-1" d="M485.54,547.88c-.44-3-1.61-3.92-4.06-3.83-5.13.18-10.27.17-15.39,0-2.4-.08-3.64.8-4.12,3.12,1.12,1.24,3.7-.62,4,1.27a39.46,39.46,0,0,1,0,8.76c-.08,1.06-1.39.7-2.19.71-8.06,0-16.13,0-24.19.05-1.81,0-2.19-.61-2.26-2.31-.33-7.85-.38-7.92,7.49-8a3.78,3.78,0,0,0,3.7-2.24c7.28-12.88,14.69-25.69,21.87-38.62.74-1.32,1.3-1.79,2.66-1.76,2.68.05,5.37,0,8.06,0,.82,0,1.63-.09,2.15.93,4.7,9.18,9.45,18.34,14.17,27.51,1.83,3.56,3.71,7.1,5.36,10.74,1.13,2.5,2.58,4,5.54,3.37,2.17-.45,2.56.7,2.59,2.67.08,7.63.15,7.63-7.54,7.63-6.11,0-12.22-.09-18.33.05-2.12,0-3.23-.32-2.91-2.74a22.28,22.28,0,0,0,0-4.76C482,548.12,482.52,546.76,485.54,547.88Zm-10.75-23.4a5.25,5.25,0,0,0-2.12,2.81c-1.1,2.36-4.45,4.78-3.15,6.79,1.13,1.75,5,.35,7.64.57,2.13.18,2.68-.52,1.61-2.47C477.38,529.63,476.1,527,474.79,524.48Z" transform="translate(-248.79 -447.02)"/><path class="cls-1" d="M474.79,524.48c1.31,2.54,2.59,5.15,4,7.7,1.07,2,.52,2.65-1.61,2.47-2.64-.22-6.51,1.18-7.64-.57-1.3-2,2.05-4.43,3.15-6.79A5.25,5.25,0,0,1,474.79,524.48Z" transform="translate(-248.79 -447.02)"/><path class="cls-1" d="M248.79,624h69s58-55,58-54-98.3,0-98.3,0" transform="translate(-248.79 -447.02)"/><polyline class="cls-1" points="34 115 128 115 161 177 188 176 144 89 47 90"/><polyline class="cls-1" points="52.52 82 139.87 82 98 0"/></svg>